<?xml version="1.0" standalone="no"?>
<!DOCTYPE svg PUBLIC "-//W3C//DTD SVG 20010904//EN"
 "http://www.w3.org/TR/2001/REC-SVG-20010904/DTD/svg10.dtd">
<svg version="1.0" xmlns="http://www.w3.org/2000/svg"
 width="1280.000000pt" height="1280.000000pt" viewBox="0 0 1280.000000 1280.000000"
 preserveAspectRatio="xMidYMid meet">
<metadata>
Created by potrace 1.15, written by Peter Selinger 2001-2017
</metadata>
<g transform="translate(0.000000,1280.000000) scale(0.100000,-0.100000)"
fill="#000000" stroke="none">
<path d="M6095 12794 c-27 -2 -115 -8 -195 -14 -1158 -85 -2296 -503 -3249
-1194 -1410 -1020 -2339 -2557 -2585 -4276 -49 -341 -60 -508 -60 -910 0 -402
11 -569 60 -910 176 -1227 699 -2366 1518 -3305 132 -151 433 -452 594 -593
968 -850 2160 -1386 3427 -1541 308 -38 447 -46 795 -46 348 0 487 8 795 46
1993 244 3764 1427 4767 3184 456 799 722 1651 815 2610 24 253 24 857 0 1110
-81 836 -282 1553 -638 2276 -496 1007 -1245 1859 -2194 2499 -271 183 -726
428 -1045 563 -627 266 -1261 422 -1985 488 -112 10 -729 20 -820 13z m845
-569 c748 -74 1424 -266 2069 -589 1755 -879 2947 -2559 3195 -4506 57 -444
57 -1016 0 -1460 -190 -1489 -937 -2843 -2091 -3788 -864 -709 -1899 -1153
-2993 -1286 -276 -34 -395 -41 -720 -41 -325 0 -444 7 -720 41 -2051 249
-3828 1582 -4652 3489 -251 580 -400 1177 -460 1845 -28 312 -15 862 28 1200
247 1945 1440 3627 3195 4506 714 357 1479 558 2309 608 141 8 692 -4 840 -19z"/>
<path d="M2897 9376 c-83 -30 -140 -88 -169 -170 -16 -48 -17 -178 -18 -2272
0 -2518 -8 -2287 84 -2380 91 -91 -23 -84 1468 -84 l1308 0 0 -410 0 -410
-150 0 c-177 0 -213 -10 -236 -65 -18 -45 -10 -78 28 -110 l30 -25 1158 0
1158 0 30 25 c36 30 45 69 26 113 -21 52 -59 62 -234 62 l-150 0 0 410 0 410
1308 0 c1491 0 1377 -7 1468 85 92 92 85 -140 82 2395 l-3 2235 -21 45 c-26
54 -74 104 -128 133 l-41 22 -3480 2 c-2903 2 -3486 0 -3518 -11z m6848 -2431
l0 -2110 -3345 0 -3345 0 -3 2100 c-1 1155 0 2106 3 2113 3 10 678 12 3347 10
l3343 -3 0 -2110z"/>
<path d="M9042 8233 c-52 -26 -77 -69 -77 -136 l0 -57 -470 -515 -470 -515
-41 0 c-27 0 -54 -8 -78 -25 -20 -14 -42 -25 -49 -25 -7 0 -273 48 -592 107
l-580 106 -38 43 c-47 54 -95 71 -154 55 -70 -19 -121 -99 -110 -173 1 -10
-170 -186 -460 -471 l-462 -455 -43 5 c-30 3 -54 -2 -81 -16 l-39 -20 -370
152 -370 152 -13 39 c-40 117 -176 150 -254 61 -35 -40 -48 -92 -33 -135 11
-29 5 -37 -330 -435 l-341 -405 -46 0 c-116 0 -184 -124 -123 -223 79 -126
277 -63 270 87 l-2 49 344 408 c315 374 346 409 374 409 17 0 44 7 59 15 28
14 40 10 395 -136 202 -83 373 -153 380 -156 7 -3 20 -23 29 -44 60 -152 283
-110 283 52 l0 44 460 453 460 453 58 2 c47 2 66 8 95 30 19 15 42 27 50 27 8
0 270 -47 583 -105 430 -80 571 -109 579 -122 40 -64 95 -103 147 -103 12 0
40 9 63 20 56 27 89 86 82 146 l-5 45 473 517 472 517 46 0 c108 1 175 111
127 210 -37 75 -123 105 -198 68z"/>
</g>
</svg>
